<?xml version="1.0" encoding="UTF-8"?>
<svg width="532px" height="539px" viewBox="0 0 532 539" version="1.1" xmlns="http://www.w3.org/2000/svg" xmlns:xlink="http://www.w3.org/1999/xlink">
    <title>Group Copy</title>
    <g id="Buzzsprout" stroke="none" stroke-width="1" fill="none" fill-rule="evenodd">
        <g id="Artboard" transform="translate(-662.000000, -43.000000)">
            <g id="Group-Copy" transform="translate(662.000000, 43.000000)">
                <path d="M293,279 L293,539 L238,539 L238,279 L293,279 Z M531.030963,307.2728 C531.030963,390.858327 509.327147,451.179601 465.919514,488.236621 C422.511881,525.293641 367.338223,541.881434 300.398538,538 C302.373985,452.026799 323.911265,391.739658 365.010377,357.138577 C406.109489,322.537495 461.449684,305.915569 531.030963,307.2728 Z M166.020586,357.138577 C207.119698,391.739658 228.656978,452.026799 230.632425,538 C163.69274,541.881434 108.519082,525.293641 65.1114491,488.236621 C21.7038164,451.179601 -2.84217094e-14,390.858327 -2.84217094e-14,307.2728 C69.5812788,305.915569 124.921474,322.537495 166.020586,357.138577 Z" id="Combined-Shape" fill="#000000"></path>
                <path d="M393.924395,188 C395.182347,234.277767 383.724448,268.234725 364.712533,291.97937 C339.34054,323.667338 301.030792,336.702849 265.045926,337.881804 C224.536821,339.208985 188.976223,322.812333 165.40151,293.606582 C144.144477,267.27211 132.724968,230.787377 135.381357,188 L135.381357,188 Z" id="Path" stroke="#000000" stroke-width="26"></path>
                <path d="M357,146 L357,213 C357,261.048773 318.048773,300 270,300 L260,300 C211.951227,300 173,261.048773 173,213 L173,146 L357,146 Z M270,0 C318.048773,-8.82641645e-15 357,38.9512268 357,87 L357,118 L173,118 L173,87 C173,38.9512268 211.951227,8.82641645e-15 260,0 L270,0 Z" id="Combined-Shape" fill="#000000"></path>
            </g>
        </g>
    </g>
</svg>