<?xml version="1.0" encoding="UTF-8" ?>
<!DOCTYPE svg PUBLIC "-//W3C//DTD SVG 1.1//EN" "http://www.w3.org/Graphics/SVG/1.1/DTD/svg11.dtd">
<svg width="728pt" height="579pt" viewBox="0 0 728 579" version="1.1" xmlns="http://www.w3.org/2000/svg">
<g id="#fcfaffff">
<path fill="#fcfaff" opacity="1.00" d=" M 0.00 0.00 L 0.37 0.00 C 0.28 0.09 0.09 0.26 0.00 0.34 L 0.00 0.00 Z" />
<path fill="#fcfaff" opacity="1.00" d=" M 727.66 0.00 L 728.00 0.00 L 728.00 0.37 C 727.91 0.28 727.74 0.09 727.66 0.00 Z" />
<path fill="#fcfaff" opacity="1.00" d=" M 227.15 23.34 C 232.36 21.37 237.34 18.59 242.93 17.81 C 246.48 18.80 250.39 17.78 253.83 19.10 C 258.85 22.55 262.27 27.89 267.45 31.17 C 271.06 33.36 273.94 36.51 276.20 40.05 C 277.63 42.41 280.39 43.14 282.72 44.28 C 285.26 45.32 287.21 47.47 289.89 48.23 C 293.54 48.58 296.90 46.73 299.98 44.99 C 304.82 42.19 310.49 41.62 315.90 40.67 C 319.41 40.04 322.62 42.05 325.79 43.25 C 329.00 44.51 332.32 47.20 332.28 50.95 C 331.36 56.27 329.73 61.85 325.67 65.66 C 323.26 67.93 321.15 70.51 319.67 73.50 C 318.11 76.91 312.68 76.09 311.83 80.03 C 311.45 82.96 310.21 86.84 312.91 89.05 C 317.08 92.41 319.40 97.80 319.47 103.10 C 317.44 105.80 314.42 108.04 311.01 108.38 C 308.86 107.88 306.93 106.72 304.75 106.35 C 304.48 107.61 303.36 108.85 303.85 110.21 C 304.96 114.50 307.28 118.48 307.57 122.98 C 307.66 124.77 308.28 126.46 308.88 128.13 C 309.42 128.37 310.51 128.84 311.05 129.08 C 314.46 129.82 316.77 132.52 319.47 134.48 C 322.44 136.68 326.30 137.36 329.07 139.88 C 331.57 142.12 333.87 144.66 336.90 146.20 C 338.69 147.10 340.33 148.26 341.66 149.78 C 341.71 153.79 337.91 155.89 335.97 158.93 C 333.24 163.21 331.56 168.13 330.47 173.06 C 329.75 175.67 331.33 178.06 333.60 179.22 C 339.71 182.48 346.50 184.67 351.85 189.22 C 356.99 193.46 363.62 194.86 369.69 197.25 C 373.30 198.38 376.01 201.43 379.78 202.19 C 385.65 203.30 391.21 199.83 397.07 200.71 C 400.04 201.96 403.28 203.04 405.32 205.69 C 407.30 208.20 410.06 209.82 412.84 211.31 C 416.99 212.24 421.12 213.21 425.03 214.94 C 430.40 215.76 435.62 217.71 441.12 217.43 C 446.79 217.82 452.76 219.68 458.21 217.11 C 460.63 211.97 458.70 206.24 459.17 200.83 C 459.53 197.22 459.08 193.34 461.04 190.10 C 462.36 188.17 464.38 186.20 466.94 186.58 C 469.02 186.49 470.28 188.35 471.37 189.83 C 471.55 195.31 469.98 202.80 475.41 206.30 C 481.17 208.99 487.88 208.92 493.96 207.39 C 497.34 206.33 500.81 207.88 504.23 207.16 C 509.56 206.20 514.94 205.46 520.25 204.35 C 524.06 202.63 522.82 197.61 520.86 194.86 C 519.36 192.94 515.66 192.01 516.59 188.97 C 518.97 186.49 522.65 186.28 525.60 184.79 C 529.46 183.14 531.55 179.28 534.68 176.70 C 536.89 174.88 538.63 172.60 540.49 170.45 C 542.24 168.39 544.88 167.52 547.06 166.02 C 551.28 163.09 554.22 158.68 558.44 155.74 C 562.49 153.17 566.86 157.01 571.20 156.41 C 575.39 155.34 577.69 150.21 582.26 150.62 C 585.61 151.45 586.02 155.48 588.42 157.51 C 591.20 159.71 590.26 163.37 590.35 166.44 C 594.45 168.73 600.32 167.12 603.33 171.29 C 605.72 174.05 603.42 177.40 601.78 179.86 C 600.23 181.65 600.34 184.06 600.24 186.28 C 600.01 186.83 599.55 187.92 599.31 188.46 C 596.84 188.68 594.28 188.65 592.00 189.78 C 585.80 193.02 581.08 198.33 576.17 203.18 C 574.75 204.55 573.65 206.19 572.67 207.89 C 572.56 211.64 572.67 215.39 572.54 219.14 C 572.52 223.56 568.85 226.73 567.78 230.83 C 567.43 232.90 567.81 234.99 568.19 237.03 C 566.93 243.25 564.59 249.24 562.03 255.03 C 561.33 255.45 560.65 255.89 559.98 256.33 C 556.49 257.01 550.85 255.21 549.68 259.86 C 550.70 263.17 550.71 266.68 550.55 270.12 C 550.49 273.95 547.45 277.06 547.62 280.95 C 547.53 285.71 547.73 290.48 547.42 295.24 C 546.39 296.16 545.77 297.95 544.12 297.81 C 541.15 298.47 539.46 295.49 538.92 293.06 C 536.80 284.01 535.07 274.75 531.21 266.24 C 530.25 266.30 529.31 266.39 528.37 266.51 C 526.07 269.46 525.99 273.43 524.31 276.69 C 518.15 277.83 514.66 271.13 513.76 266.03 C 514.13 264.63 514.46 263.23 514.77 261.82 C 516.28 256.79 522.04 255.83 525.24 252.24 C 528.12 249.21 530.29 244.87 529.47 240.62 C 528.23 238.43 525.21 238.62 523.04 238.59 C 513.66 238.46 504.27 238.94 494.91 238.30 C 492.84 237.42 490.85 236.26 489.66 234.28 C 489.46 230.59 488.86 226.88 487.21 223.55 C 482.55 223.68 478.72 221.30 475.11 218.68 C 472.62 218.62 470.13 218.57 467.64 218.53 C 465.10 220.18 462.74 222.68 462.70 225.89 C 463.14 232.38 474.23 232.88 472.50 240.02 C 469.13 242.48 465.54 245.01 463.55 248.79 C 462.74 254.56 470.27 255.42 472.58 259.68 C 472.49 263.53 470.91 267.44 472.72 271.13 C 474.25 274.00 475.75 276.89 477.30 279.76 C 477.72 284.87 478.90 289.88 480.13 294.85 C 480.74 297.36 480.91 300.61 478.64 302.36 C 475.32 304.73 471.09 305.47 467.09 305.25 C 465.45 305.02 464.49 306.48 463.36 307.34 C 459.05 311.38 451.99 311.33 448.59 316.50 C 447.29 320.37 449.69 324.68 447.72 328.43 C 446.24 331.53 445.17 335.11 442.31 337.27 C 437.08 341.45 430.91 345.49 423.88 344.70 C 419.46 346.67 418.23 351.72 415.17 355.07 C 411.66 359.01 409.41 363.91 405.68 367.67 C 402.31 371.33 398.07 374.04 394.67 377.67 C 390.77 381.48 388.04 386.62 383.03 389.16 C 379.22 391.11 375.65 393.87 373.77 397.83 C 373.53 400.30 373.17 403.09 371.14 404.79 C 367.62 407.48 363.17 408.56 358.81 408.85 C 354.48 409.57 352.44 413.86 349.96 416.96 C 348.00 419.46 344.50 418.52 341.77 418.69 C 337.19 420.00 334.55 424.36 333.17 428.63 C 331.42 434.37 333.79 440.20 333.61 446.00 C 333.72 449.74 334.85 453.38 334.55 457.15 C 334.30 459.95 336.58 462.19 336.52 464.96 C 336.24 473.70 330.50 480.78 327.81 488.79 C 327.22 497.35 327.94 505.97 327.46 514.55 C 327.13 517.74 323.48 518.80 320.75 518.73 C 319.45 519.38 318.00 519.97 317.23 521.30 C 314.35 525.58 311.09 529.86 310.18 535.08 C 309.89 535.57 309.32 536.56 309.03 537.05 C 305.20 539.27 300.30 539.62 297.12 542.88 C 295.03 546.21 294.94 550.83 291.55 553.35 C 287.69 556.15 282.36 558.96 277.66 556.48 C 268.16 551.77 260.75 542.63 258.61 532.18 C 257.30 526.76 256.11 521.28 253.78 516.19 C 250.43 507.16 247.05 498.03 241.80 489.90 C 234.53 481.31 230.45 470.33 228.86 459.28 C 226.42 449.54 223.12 439.83 217.49 431.42 C 216.06 429.35 214.93 427.10 213.98 424.78 C 210.77 416.97 206.67 409.37 205.63 400.87 C 205.12 391.03 202.72 381.40 200.05 371.96 C 199.07 368.36 199.55 364.59 199.25 360.92 C 198.50 359.04 197.56 357.18 197.48 355.12 C 197.31 351.32 195.90 347.57 196.67 343.76 C 197.41 339.72 199.01 335.92 200.20 332.01 C 199.57 326.56 196.29 321.25 197.82 315.70 C 199.34 311.78 196.21 308.24 195.03 304.65 C 194.34 304.64 193.65 304.63 192.96 304.62 C 191.30 310.00 191.48 316.60 186.55 320.34 C 179.24 325.50 169.91 328.95 160.90 327.34 C 153.86 323.90 149.47 317.22 144.74 311.28 C 140.90 306.64 134.95 302.52 134.53 296.05 C 135.07 295.68 136.14 294.94 136.67 294.57 C 143.31 294.65 150.60 293.89 155.46 288.83 C 155.49 288.23 155.54 287.05 155.57 286.45 C 150.90 286.68 146.04 288.65 141.49 286.66 C 135.31 284.13 128.61 280.38 126.26 273.72 C 125.35 270.77 122.59 268.28 123.50 264.98 C 124.06 264.65 125.19 264.01 125.76 263.68 C 126.37 263.59 127.59 263.39 128.20 263.29 C 130.81 261.93 133.04 259.37 136.18 259.45 C 139.89 259.36 143.65 259.18 147.31 259.87 C 153.25 261.52 159.22 258.16 165.19 259.85 C 168.14 261.04 172.27 259.70 172.33 256.06 C 172.35 249.56 169.50 243.48 167.56 237.38 C 166.38 233.55 161.76 232.81 159.76 229.62 C 157.48 225.95 158.84 221.49 158.67 217.45 C 155.23 214.38 149.66 213.26 148.56 208.09 C 149.78 203.91 152.72 200.72 155.81 197.81 C 159.02 194.84 161.14 189.77 166.09 189.55 C 169.99 189.13 171.87 194.38 175.91 193.49 C 179.99 192.63 184.37 192.81 188.22 191.07 C 193.10 187.72 196.28 182.51 200.02 178.03 C 202.27 175.58 205.33 174.06 207.65 171.66 C 211.44 167.65 214.38 162.92 216.84 157.99 C 218.20 154.73 221.69 153.46 224.12 151.19 C 226.89 148.74 227.98 145.06 230.25 142.22 C 232.90 138.35 237.42 135.24 237.51 130.10 C 238.29 126.29 236.43 121.71 239.45 118.60 C 242.12 116.29 245.64 115.27 248.45 113.14 C 248.52 112.27 248.60 111.40 248.68 110.53 C 246.27 108.15 243.03 106.75 240.97 103.99 C 236.68 98.12 227.43 98.60 223.76 92.16 C 223.09 84.19 221.70 76.20 222.52 68.17 C 224.25 64.25 228.49 62.13 230.57 58.41 C 231.81 55.53 229.47 53.21 227.78 51.20 C 225.52 48.05 221.79 46.58 218.85 44.19 C 215.98 41.73 211.51 41.70 209.52 38.18 C 208.80 32.78 213.38 29.17 216.89 25.90 C 218.79 24.06 221.33 23.25 223.89 22.81 C 224.97 23.01 226.06 23.18 227.15 23.34 Z" />
<path fill="#fcfaff" opacity="1.00" d=" M 0.00 578.63 C 0.09 578.72 0.26 578.91 0.34 579.00 L 0.00 579.00 L 0.00 578.63 Z" />
<path fill="#fcfaff" opacity="1.00" d=" M 727.63 579.00 C 727.72 578.91 727.91 578.74 728.00 578.66 L 728.00 579.00 L 727.63 579.00 Z" />
</g>
</svg>
