<svg width="370" height="293" viewBox="0 0 370 293" fill="none" xmlns="http://www.w3.org/2000/svg">
<path d="M149.193 222.851C149.193 240.531 141.905 256.642 127.329 271.185C112.752 285.728 97.6043 293 81.8847 293C54.4469 293 33.8686 284.73 20.1496 268.191C6.71655 251.652 0 229.837 0 202.747C0 148.567 15.0051 103.37 45.0152 67.1547C75.0253 30.9397 114.61 8.55474 163.769 0L183.919 29.0861C139.904 43.344 109.751 62.7348 93.4601 87.2584C86.8864 96.9538 83.5996 104.368 83.5996 109.501C83.5996 126.04 88.1726 137.589 97.3185 144.147C106.75 150.421 114.324 156.124 120.04 161.257C125.757 166.105 130.758 171.38 135.046 177.083C144.477 189.63 149.193 204.886 149.193 222.851ZM335.274 222.851C335.274 240.531 327.986 256.642 313.41 271.185C298.833 285.728 283.685 293 267.966 293C240.528 293 219.949 284.73 206.231 268.191C192.797 251.652 186.081 229.837 186.081 202.747C186.081 148.567 201.086 103.37 231.096 67.1547C261.106 30.9397 300.691 8.55474 349.85 0L370 29.0861C325.985 43.344 295.832 62.7348 279.541 87.2584C272.967 96.9538 269.68 104.368 269.68 109.501C269.68 126.04 274.253 137.589 283.399 144.147C292.831 150.421 300.405 156.124 306.121 161.257C311.838 166.105 316.839 171.38 321.126 177.083C330.558 189.63 335.274 204.886 335.274 222.851Z" fill="#F0F3FF"/>
</svg>
