<?xml version="1.0" encoding="UTF-8" standalone="no"?>
<!DOCTYPE svg PUBLIC "-//W3C//DTD SVG 1.1//EN" "http://www.w3.org/Graphics/SVG/1.1/DTD/svg11.dtd">
<svg width="100%" height="100%" viewBox="0 0 371 68" version="1.1" xmlns="http://www.w3.org/2000/svg" xmlns:xlink="http://www.w3.org/1999/xlink" xml:space="preserve" xmlns:serif="http://www.serif.com/" style="fill-rule:evenodd;clip-rule:evenodd;stroke-linejoin:round;stroke-miterlimit:2;">
    <g id="Shape" transform="matrix(1,0,0,1,0.872,-0.432)">
        <path d="M111.268,26.432C109.276,26.432 107.344,26.168 105.472,25.64C103.624,25.088 102.136,24.38 101.008,23.516L102.988,19.124C104.068,19.916 105.352,20.552 106.84,21.032C108.328,21.512 109.816,21.752 111.304,21.752C112.96,21.752 114.184,21.512 114.976,21.032C115.768,20.528 116.164,19.868 116.164,19.052C116.164,18.452 115.924,17.96 115.444,17.576C114.988,17.168 114.388,16.844 113.644,16.604C112.924,16.364 111.94,16.1 110.692,15.812C108.772,15.356 107.2,14.9 105.976,14.444C104.752,13.988 103.696,13.256 102.808,12.248C101.944,11.24 101.512,9.896 101.512,8.216C101.512,6.752 101.908,5.432 102.7,4.256C103.492,3.056 104.68,2.108 106.264,1.412C107.872,0.716 109.828,0.368 112.132,0.368C113.74,0.368 115.312,0.56 116.848,0.944C118.384,1.328 119.728,1.88 120.88,2.6L119.08,7.028C116.752,5.708 114.424,5.048 112.096,5.048C110.464,5.048 109.252,5.312 108.46,5.84C107.692,6.368 107.308,7.064 107.308,7.928C107.308,8.792 107.752,9.44 108.64,9.872C109.552,10.28 110.932,10.688 112.78,11.096C114.7,11.552 116.272,12.008 117.496,12.464C118.72,12.92 119.764,13.64 120.628,14.624C121.516,15.608 121.96,16.94 121.96,18.62C121.96,20.06 121.552,21.38 120.736,22.58C119.944,23.756 118.744,24.692 117.136,25.388C115.528,26.084 113.572,26.432 111.268,26.432ZM142.541,20.6L130.841,20.6L128.609,26L122.633,26L133.865,0.8L139.625,0.8L150.893,26L144.773,26L142.541,20.6ZM140.705,16.172L136.709,6.524L132.713,16.172L140.705,16.172ZM159.34,5.48L159.34,12.14L171.004,12.14L171.004,16.82L159.34,16.82L159.34,26L153.508,26L153.508,0.8L172.552,0.8L172.552,5.48L159.34,5.48ZM181.896,5.552L173.832,5.552L173.832,0.8L195.792,0.8L195.792,5.552L187.728,5.552L187.728,26L181.896,26L181.896,5.552ZM119.584,52.6L107.884,52.6L105.652,58L99.676,58L110.908,32.8L116.668,32.8L127.936,58L121.816,58L119.584,52.6ZM117.748,48.172L113.752,38.524L109.756,48.172L117.748,48.172ZM141.459,32.8C143.691,32.8 145.623,33.172 147.255,33.916C148.911,34.66 150.183,35.716 151.071,37.084C151.959,38.452 152.403,40.072 152.403,41.944C152.403,43.792 151.959,45.412 151.071,46.804C150.183,48.172 148.911,49.228 147.255,49.972C145.623,50.692 143.691,51.052 141.459,51.052L136.383,51.052L136.383,58L130.551,58L130.551,32.8L141.459,32.8ZM141.135,46.3C142.887,46.3 144.219,45.928 145.131,45.184C146.043,44.416 146.499,43.336 146.499,41.944C146.499,40.528 146.043,39.448 145.131,38.704C144.219,37.936 142.887,37.552 141.135,37.552L136.383,37.552L136.383,46.3L141.135,46.3ZM169.122,58.432C166.506,58.432 164.142,57.868 162.03,56.74C159.942,55.612 158.298,54.064 157.098,52.096C155.922,50.104 155.334,47.872 155.334,45.4C155.334,42.928 155.922,40.708 157.098,38.74C158.298,36.748 159.942,35.188 162.03,34.06C164.142,32.932 166.506,32.368 169.122,32.368C171.738,32.368 174.09,32.932 176.178,34.06C178.266,35.188 179.91,36.748 181.11,38.74C182.31,40.708 182.91,42.928 182.91,45.4C182.91,47.872 182.31,50.104 181.11,52.096C179.91,54.064 178.266,55.612 176.178,56.74C174.09,57.868 171.738,58.432 169.122,58.432ZM169.122,53.464C170.61,53.464 171.954,53.128 173.154,52.456C174.354,51.76 175.29,50.8 175.962,49.576C176.658,48.352 177.006,46.96 177.006,45.4C177.006,43.84 176.658,42.448 175.962,41.224C175.29,40 174.354,39.052 173.154,38.38C171.954,37.684 170.61,37.336 169.122,37.336C167.634,37.336 166.29,37.684 165.09,38.38C163.89,39.052 162.942,40 162.246,41.224C161.574,42.448 161.238,43.84 161.238,45.4C161.238,46.96 161.574,48.352 162.246,49.576C162.942,50.8 163.89,51.76 165.09,52.456C166.29,53.128 167.634,53.464 169.122,53.464ZM187.293,32.8L193.125,32.8L193.125,53.248L205.761,53.248L205.761,58L187.293,58L187.293,32.8ZM220.801,58.432C218.185,58.432 215.821,57.868 213.709,56.74C211.621,55.612 209.977,54.064 208.777,52.096C207.601,50.104 207.013,47.872 207.013,45.4C207.013,42.928 207.601,40.708 208.777,38.74C209.977,36.748 211.621,35.188 213.709,34.06C215.821,32.932 218.185,32.368 220.801,32.368C223.417,32.368 225.769,32.932 227.857,34.06C229.945,35.188 231.589,36.748 232.789,38.74C233.989,40.708 234.589,42.928 234.589,45.4C234.589,47.872 233.989,50.104 232.789,52.096C231.589,54.064 229.945,55.612 227.857,56.74C225.769,57.868 223.417,58.432 220.801,58.432ZM220.801,53.464C222.289,53.464 223.633,53.128 224.833,52.456C226.033,51.76 226.969,50.8 227.641,49.576C228.337,48.352 228.685,46.96 228.685,45.4C228.685,43.84 228.337,42.448 227.641,41.224C226.969,40 226.033,39.052 224.833,38.38C223.633,37.684 222.289,37.336 220.801,37.336C219.313,37.336 217.969,37.684 216.769,38.38C215.569,39.052 214.621,40 213.925,41.224C213.253,42.448 212.917,43.84 212.917,45.4C212.917,46.96 213.253,48.352 213.925,49.576C214.621,50.8 215.569,51.76 216.769,52.456C217.969,53.128 219.313,53.464 220.801,53.464ZM256,45.004L261.328,45.004L261.328,55.228C259.96,56.26 258.376,57.052 256.576,57.604C254.776,58.156 252.964,58.432 251.14,58.432C248.524,58.432 246.172,57.88 244.084,56.776C241.996,55.648 240.352,54.1 239.152,52.132C237.976,50.14 237.388,47.896 237.388,45.4C237.388,42.904 237.976,40.672 239.152,38.704C240.352,36.712 242.008,35.164 244.12,34.06C246.232,32.932 248.608,32.368 251.248,32.368C253.456,32.368 255.46,32.74 257.26,33.484C259.06,34.228 260.572,35.308 261.796,36.724L258.052,40.18C256.252,38.284 254.08,37.336 251.536,37.336C249.928,37.336 248.5,37.672 247.252,38.344C246.004,39.016 245.032,39.964 244.336,41.188C243.64,42.412 243.292,43.816 243.292,45.4C243.292,46.96 243.64,48.352 244.336,49.576C245.032,50.8 245.992,51.76 247.216,52.456C248.464,53.128 249.88,53.464 251.464,53.464C253.144,53.464 254.656,53.104 256,52.384L256,45.004ZM286.258,53.32L286.258,58L266.746,58L266.746,32.8L285.79,32.8L285.79,37.48L272.542,37.48L272.542,42.952L284.242,42.952L284.242,47.488L272.542,47.488L272.542,53.32L286.258,53.32ZM296.118,37.552L288.054,37.552L288.054,32.8L310.014,32.8L310.014,37.552L301.95,37.552L301.95,58L296.118,58L296.118,37.552ZM313.152,32.8L318.984,32.8L318.984,58L313.152,58L313.152,32.8ZM337.025,58.432C334.457,58.432 332.129,57.88 330.041,56.776C327.977,55.648 326.345,54.1 325.145,52.132C323.969,50.14 323.381,47.896 323.381,45.4C323.381,42.904 323.969,40.672 325.145,38.704C326.345,36.712 327.977,35.164 330.041,34.06C332.129,32.932 334.469,32.368 337.061,32.368C339.245,32.368 341.213,32.752 342.965,33.52C344.741,34.288 346.229,35.392 347.429,36.832L343.685,40.288C341.981,38.32 339.869,37.336 337.349,37.336C335.789,37.336 334.397,37.684 333.173,38.38C331.949,39.052 330.989,40 330.293,41.224C329.621,42.448 329.285,43.84 329.285,45.4C329.285,46.96 329.621,48.352 330.293,49.576C330.989,50.8 331.949,51.76 333.173,52.456C334.397,53.128 335.789,53.464 337.349,53.464C339.869,53.464 341.981,52.468 343.685,50.476L347.429,53.932C346.229,55.396 344.741,56.512 342.965,57.28C341.189,58.048 339.209,58.432 337.025,58.432ZM359.436,58.432C357.444,58.432 355.512,58.168 353.64,57.64C351.792,57.088 350.304,56.38 349.176,55.516L351.156,51.124C352.236,51.916 353.52,52.552 355.008,53.032C356.496,53.512 357.984,53.752 359.472,53.752C361.128,53.752 362.352,53.512 363.144,53.032C363.936,52.528 364.332,51.868 364.332,51.052C364.332,50.452 364.092,49.96 363.612,49.576C363.156,49.168 362.556,48.844 361.812,48.604C361.092,48.364 360.108,48.1 358.86,47.812C356.94,47.356 355.368,46.9 354.144,46.444C352.92,45.988 351.864,45.256 350.976,44.248C350.112,43.24 349.68,41.896 349.68,40.216C349.68,38.752 350.076,37.432 350.868,36.256C351.66,35.056 352.848,34.108 354.432,33.412C356.04,32.716 357.996,32.368 360.3,32.368C361.908,32.368 363.48,32.56 365.016,32.944C366.552,33.328 367.896,33.88 369.048,34.6L367.248,39.028C364.92,37.708 362.592,37.048 360.264,37.048C358.632,37.048 357.42,37.312 356.628,37.84C355.86,38.368 355.476,39.064 355.476,39.928C355.476,40.792 355.92,41.44 356.808,41.872C357.72,42.28 359.1,42.688 360.948,43.096C362.868,43.552 364.44,44.008 365.664,44.464C366.888,44.92 367.932,45.64 368.796,46.624C369.684,47.608 370.128,48.94 370.128,50.62C370.128,52.06 369.72,53.38 368.904,54.58C368.112,55.756 366.912,56.692 365.304,57.388C363.696,58.084 361.74,58.432 359.436,58.432Z" style="fill:white;fill-rule:nonzero;"/>
    </g>
    <path id="New-Logo" d="M37.993,27.709C38.003,27.82 38.002,27.932 37.992,28.043L35.407,55.945C35.317,56.91 34.495,57.649 33.511,57.649L20.332,57.649C19.984,57.649 19.643,57.742 19.346,57.92L2.89,67.729C1.991,68.265 0.82,67.982 0.275,67.097C0.052,66.734 -0.039,66.308 0.016,65.887L2.561,46.441C2.571,46.362 2.576,46.282 2.576,46.202L2.576,30.619C2.576,29.648 3.33,28.838 4.312,28.753L35.929,26.007C36.976,25.916 37.9,26.678 37.993,27.709ZM49.008,27.725C49.1,26.682 49.991,25.913 51,26.008L72.333,28.021C73.277,28.111 74,28.93 74,29.911L74,56.103C74,57.151 73.179,58 72.167,58L53.348,58C52.401,58 51.609,57.253 51.522,56.277L49.008,28.072C48.997,27.956 48.997,27.84 49.008,27.725ZM72.168,0C73.18,0 74,0.795 74,1.776L74,12.308C74,13.225 73.279,13.991 72.337,14.076L51.001,15.992C50.889,16.002 50.776,16.003 50.664,15.993C49.657,15.903 48.915,15.038 49.008,14.061L50.192,1.613C50.279,0.699 51.07,0 52.016,0L72.168,0ZM34.922,0C35.894,0 36.707,0.701 36.795,1.616L37.992,14.062C38.086,15.04 37.324,15.904 36.289,15.993C36.178,16.002 36.066,16.002 35.955,15.993L4.716,13.403C3.745,13.322 3,12.554 3,11.633L3,1.777C3,0.795 3.842,0 4.881,0L34.922,0Z" style="fill:white;fill-rule:nonzero;"/>
</svg>
