<svg width="358" height="81" viewBox="0 0 358 81" fill="none" xmlns="http://www.w3.org/2000/svg">
<path d="M13.5571 68.5977C13.988 69.3522 14.3285 69.8997 14.5786 70.2403C14.8619 70.6261 15.3214 71.1682 15.9571 71.8665C14.7323 73.0527 13.5246 74.2199 12.3341 75.3682C10.3775 77.2552 4.60881 80.8877 4.35879 80.6377C4.10878 80.3876 7.66577 74.6969 9.62809 72.6621C10.914 71.3288 12.2237 69.974 13.5571 68.5977ZM53.0095 23.9977C52.9545 26.1713 53.4138 27.7994 54.3875 28.8821C55.3612 29.9649 56.828 30.7171 58.7879 31.1388C56.9758 34.4777 55.9758 37.8162 55.7878 41.1544C55.2667 50.4065 61.0738 57.6841 56.0107 66.9333C50.099 77.7329 44.4108 73.9322 34.82 80.6335C23.4348 73.3289 20.1601 77.7355 13.7 66.9333C8.84246 58.8107 14.4149 49.9623 13.9907 41.1544C13.8354 37.9283 12.8345 34.5897 10.9881 31.1388C12.8913 30.6732 14.3315 29.921 15.3089 28.8821C16.2862 27.8433 16.7502 26.2152 16.7008 23.9977C21.3902 26.6826 24.8177 28.0251 26.9835 28.0251C29.1492 28.0251 31.7841 26.8298 34.888 24.4391C37.8905 26.881 40.5185 28.0764 42.7718 28.0251C45.0251 27.9738 48.4377 26.6314 53.0095 23.9977ZM56.3376 68.3189C57.6711 69.6952 58.9807 71.05 60.2666 72.3834C62.229 74.4181 65.786 80.1089 65.5359 80.3589C65.2859 80.6089 59.5172 76.9765 57.5607 75.0894C56.3701 73.9412 55.1624 72.774 53.9376 71.5878C54.5733 70.8895 55.0328 70.3474 55.3161 69.9616C55.5662 69.621 55.9067 69.0734 56.3376 68.3189ZM34.9344 28.549L34.9069 28.5691C34.1395 29.1351 33.6388 30.066 33.6388 31.1184L33.6392 31.1724L33.6406 31.2262L33.6388 31.2262L33.6388 31.3241C33.3495 31.2022 33.033 31.1351 32.7013 31.1351C32.0691 31.1351 31.492 31.3791 31.053 31.7809C31.0838 31.7797 31.1147 31.7791 31.1458 31.7791C32.5066 31.7791 33.6123 32.7602 33.6343 34.3082L33.6347 34.3553V36.1001L33.6367 36.0993L33.6388 36.0984L33.6388 51.3519L20.8386 51.3519C19.2578 51.3519 18.2533 50.2382 18.2533 48.8643C18.2533 48.8333 18.2539 48.8024 18.2551 48.7716C17.8518 49.2104 17.607 49.7872 17.607 50.419C17.607 50.7447 17.672 51.0557 17.7903 51.3405C17.7476 51.3389 17.7046 51.338 17.6615 51.338C16.6137 51.338 15.6864 51.8343 15.1197 52.596L15.0921 52.6337L15.1122 52.6611C15.6596 53.4034 16.5484 53.8962 17.5583 53.9277L17.6098 53.9289L17.6587 53.9293L17.6588 53.9432L17.8127 53.9432C17.6908 54.2325 17.6237 54.549 17.6237 54.8807C17.6237 55.5129 17.8676 56.0901 18.2694 56.529C18.2683 56.4982 18.2677 56.4673 18.2677 56.4363C18.2677 55.0754 19.2487 53.9696 20.7967 53.9476L20.8438 53.9473H22.5886L22.5877 53.9452L22.5868 53.9432L33.6388 53.9431L33.6388 69.2021L33.6367 69.2013L33.6347 69.2004V70.9452L33.6343 70.9923C33.6123 72.5404 32.5066 73.5214 31.1458 73.5214C31.1147 73.5214 31.0838 73.5208 31.053 73.5196C31.492 73.9215 32.0691 74.1654 32.7013 74.1654C33.0135 74.1654 33.3122 74.106 33.5875 73.9974L33.6388 73.9764L33.6388 74.0744L33.6406 74.0744L33.6392 74.1281L33.6388 74.1821C33.6388 75.2173 34.1233 76.1349 34.8694 76.7033L34.9069 76.7315L34.9344 76.7515L34.9721 76.7239C35.7337 76.1572 36.23 75.2299 36.23 74.1821L36.2296 74.1281L36.2282 74.0744L36.23 74.0744V73.9942L36.2811 74.015C36.5552 74.123 36.8523 74.1821 37.1628 74.1821C37.7946 74.1821 38.3714 73.9373 38.8102 73.534C38.7795 73.5352 38.7486 73.5358 38.7175 73.5358C37.3574 73.5358 36.2523 72.5512 36.2303 70.9976L36.23 70.9504L36.23 53.9851L47.2345 53.9852L47.2336 53.9873L47.2327 53.9893L48.9775 53.9893L49.0246 53.9897C50.5726 54.0116 51.5536 55.1174 51.5536 56.4783C51.5536 56.5093 51.553 56.5403 51.5519 56.571C51.9537 56.1321 52.1977 55.5549 52.1977 54.9227C52.1977 54.6106 52.1382 54.3118 52.0296 54.0365L52.0087 53.9852L52.1626 53.9852L52.1626 53.9713L52.2115 53.9709L52.263 53.9697C53.2555 53.9387 54.131 53.4622 54.6805 52.7413L54.7091 52.7031L54.7292 52.6757L54.7016 52.638C54.1349 51.8764 53.2076 51.38 52.1598 51.38C52.1167 51.38 52.0737 51.3809 52.031 51.3826C52.1493 51.0977 52.2143 50.7867 52.2143 50.4611C52.2143 49.8292 51.9695 49.2524 51.5662 48.8137L51.5676 48.8599L51.568 48.9063L51.5677 48.9475C51.548 50.2888 50.5676 51.3721 49.0295 51.3936L48.9827 51.3939L36.23 51.3939L36.23 34.3501C36.23 32.7693 37.3437 31.7648 38.7175 31.7648C38.7486 31.7648 38.7795 31.7654 38.8102 31.7666C38.3714 31.3632 37.7946 31.1184 37.1628 31.1184C36.8523 31.1184 36.5552 31.1775 36.2811 31.2855L36.23 31.3064V31.2262L36.2282 31.2262C36.2294 31.1904 36.23 31.1545 36.23 31.1184C36.23 30.0535 35.7173 29.113 34.9344 28.549ZM34.9168 31.144L34.926 31.2811C35.099 33.8767 35.1871 36.038 35.1901 37.765L35.1902 52.3399L35.1901 52.3917L46.4854 52.4337L46.5673 52.4338C47.8841 52.4372 49.5233 52.5214 51.4849 52.6864L51.6079 52.6968L51.7293 52.7072L51.6023 52.7182C49.6616 52.8858 48.0149 52.9731 46.6622 52.9802L46.5724 52.9805L46.4854 52.9806L36.23 52.9606L35.1902 52.9605V67.4434C35.1902 69.155 35.1052 71.3008 34.9352 73.8808L34.926 74.0194L34.9168 74.1565L34.9071 74.0141C34.7377 71.5062 34.6498 69.3812 34.6437 67.639L34.6434 67.5408L34.6433 67.4434L34.6433 52.9606L23.3684 52.9386L23.2809 52.9385C21.903 52.9349 20.216 52.8475 18.2198 52.6762L18.092 52.6652L18.2142 52.6547C20.2428 52.4829 21.9335 52.3952 23.2861 52.3918L23.3684 52.3917L34.6433 52.3918L34.6433 37.8571L34.6434 37.7597C34.6466 35.9668 34.7377 33.7616 34.9168 31.144ZM30.6056 57.2821C30.4288 57.353 30.1224 57.4238 29.6863 57.4947C29.3174 57.5546 28.9737 57.5892 28.6554 57.5984L28.5692 57.6003L28.4842 57.601H21.7134V57.7781H21.9433L21.9892 57.7789C22.1716 57.7856 22.339 57.8326 22.4913 57.9198C22.8559 58.108 23.0496 58.3896 23.0724 58.7646L23.0741 58.8024L23.0747 58.8409V68.707L23.0723 68.7505C23.0517 69.0389 22.9376 69.2871 22.7299 69.4952C22.5322 69.6933 22.2982 69.8016 22.0278 69.82L21.9848 69.8222L21.9433 69.8229H21.7134V70H27.0876L27.07 69.8229H26.8578L26.8163 69.8222C26.5274 69.8127 26.276 69.7037 26.0623 69.4952C25.8587 69.2966 25.7477 69.0614 25.7292 68.7896L25.7271 68.7485L25.7264 68.707V64.261H28.0953L28.1439 64.263C28.5464 64.2844 28.8808 64.4313 29.1471 64.7038C29.4028 64.9654 29.5405 65.2924 29.5601 65.6849L29.562 65.7343L29.5626 65.7843V65.926H29.7394V61.8343H29.5626V61.9938L29.562 62.042C29.5519 62.4573 29.4107 62.8013 29.1383 63.0743C28.8772 63.3359 28.5509 63.4818 28.1592 63.5119L28.1099 63.5151L28.0599 63.5171H25.7264V58.3626H28.7494L28.8026 58.3644C29.2961 58.3858 29.6879 58.5476 29.978 58.8497C30.2578 59.1411 30.4074 59.522 30.4267 59.9925L30.4283 60.0451L30.4288 60.0985V60.2756H30.6056V57.2821ZM50.0443 57.2821C49.8797 57.3529 49.5828 57.4236 49.1536 57.4944C48.7905 57.5543 48.4505 57.5888 48.1336 57.598L48.0478 57.5999L47.9631 57.6005H40.8552L40.7709 57.5991C39.9616 57.5831 39.3265 57.4894 38.8655 57.3181L38.8184 57.3001L38.774 57.2821V60.3599H38.9504V60.1476L38.9509 60.0931C38.9615 59.5874 39.1201 59.1752 39.4266 58.8564C39.7226 58.5486 40.1156 58.3791 40.6057 58.348L40.6586 58.3452L40.7141 58.3434H43.0952V68.7441L43.0909 68.788C43.0594 69.0642 42.9402 69.3031 42.7336 69.5047C42.5368 69.6968 42.3087 69.8019 42.0493 69.8202L42.0081 69.8224L41.9664 69.8231H41.7371V70H47.0989L47.0812 69.8231H46.8696L46.8282 69.8225C46.5402 69.8133 46.2924 69.7073 46.0847 69.5047C45.8879 69.3127 45.7753 69.082 45.7469 68.8128L45.7431 68.7699L45.7408 68.7264V58.3434H48.1042L48.1645 58.346C48.5032 58.3646 48.7947 58.4463 49.039 58.5911C49.5665 58.8837 49.8422 59.3698 49.8662 60.0492L49.8675 60.0981L49.8679 60.1476V60.3599H50.0443V57.2821ZM26.0166 35.9823C24.926 35.9823 24.0553 36.2641 23.4045 36.8276C22.7536 37.3912 22.393 38.1368 22.3227 39.0643C22.2992 39.1817 22.2875 39.2991 22.2875 39.4165C22.2875 40.4948 22.819 41.4084 23.8819 42.1575L23.9374 42.1961L23.9938 42.2344L27.0545 44.2597L27.1143 44.2991C27.5874 44.6124 27.928 44.8987 28.1363 45.1579C28.3532 45.428 28.4617 45.7332 28.4617 46.0737C28.4617 46.6491 28.2419 47.1246 27.8021 47.5003C27.3623 47.876 26.7496 48.0639 25.9639 48.0639C24.9554 48.0639 24.1609 47.7615 23.5804 47.1569C22.9999 46.5522 22.7097 45.8448 22.7097 45.0347C22.7097 44.9877 22.7111 44.9407 22.7141 44.8938L22.7195 44.8233L22.7272 44.7529H22.5689L22.5354 44.8094C22.1942 45.3969 22.0236 46.1002 22.0236 46.9191C22.0236 47.2361 22.0647 47.5062 22.1468 47.7292C22.4634 48.058 22.9589 48.3192 23.6332 48.513C24.3075 48.7067 25.0433 48.8035 25.8408 48.8035C27.248 48.8035 28.3767 48.4719 29.2269 47.8085C30.0771 47.1451 30.5022 46.1912 30.5022 44.9466C30.5022 43.869 30.0097 42.9887 29.0246 42.3056L28.9723 42.2698L28.9191 42.2344L25.5593 40.0506L25.5048 40.0154C24.9845 39.6764 24.645 39.3594 24.4863 39.0643C24.3807 38.8765 24.328 38.6475 24.328 38.3775C24.328 38.1074 24.4335 37.8374 24.6446 37.5673C25.0551 37.0038 25.7176 36.722 26.6323 36.722C27.3828 36.722 27.9838 36.9069 28.4353 37.2767C28.8603 37.6248 29.0852 38.0795 29.1102 38.6408L29.112 38.6937L29.1126 38.7473H29.2885L29.5172 36.1584H28.4089L28.304 36.1456C27.4002 36.0367 26.6377 35.9823 26.0166 35.9823ZM44.5971 35.8789H44.4384L44.4361 35.9006C44.3936 36.2703 44.1208 36.9913 43.6176 38.0637L43.5872 38.1285L43.5567 38.1928L39.4833 47.4309L39.4535 47.4851C39.2821 47.7879 39.0686 48.0171 38.8133 48.1728C38.5747 48.3183 38.3361 48.3996 38.0976 48.4167L38.0498 48.4193L38.0021 48.4201H37.8434V48.5967H41.617V48.4201H41.476L41.4376 48.4195C41.1981 48.412 41.0169 48.3327 40.8941 48.1817C40.7647 48.0227 40.7001 47.8755 40.7001 47.7401C40.7001 47.6347 40.7179 47.5241 40.7534 47.408L40.7698 47.358L40.7883 47.3073L41.7052 45.1347H45.8315L46.6955 47.3073L46.714 47.3544C46.7605 47.48 46.7837 47.6056 46.7837 47.7312C46.7837 47.8725 46.722 48.0227 46.5985 48.1817C46.4878 48.3243 46.3226 48.4029 46.103 48.4176L46.0637 48.4195L46.0254 48.4201H45.8667V48.5967H51.4919V48.4201H51.3332L51.2834 48.4192C51.0185 48.4098 50.7589 48.3247 50.5044 48.164C50.2633 48.0117 50.0596 47.7916 49.8933 47.5036L49.8625 47.4488L49.8343 47.3956L44.5971 35.8789ZM43.7898 40.0148L45.4948 44.3575H41.9793L43.7898 40.0148ZM69.1518 15.7375C70.2828 16.8685 70.2827 18.7023 69.1517 19.8333C68.3227 20.6623 67.1162 20.8838 66.0856 20.4976L59.9085 27.061L60.0518 27.2044C61.9055 29.0581 63.7105 30.9606 65.4667 32.9119L65.0278 33.3508C62.8322 31.3212 61.1268 29.7111 59.9115 28.5204L59.9066 28.5255L59.7936 28.6385C59.7552 28.6768 59.7174 28.7146 59.6802 28.7519L59.4625 28.9695L59.4362 28.9958L59.1589 29.2729L59.1348 29.297L58.9269 29.5049L58.9047 29.527L58.7968 29.6349L58.7758 29.6559L58.634 29.7975C58.5949 29.8366 58.5569 29.8746 58.52 29.9115L58.3786 30.0528C58.3447 30.0866 58.3121 30.1192 58.2805 30.1508C57.3179 29.9799 56.5184 29.6297 55.882 29.1003C55.4839 28.769 54.9629 28.1558 54.319 27.2605C54.7788 26.8002 55.572 25.9905 56.4748 25.0836C54.829 23.4136 53.2189 21.7079 51.6442 19.9668L52.0831 19.5279C55.3676 22.6195 57.3522 24.5066 58.0367 25.1892L57.8607 25.0132L64.4094 18.8494C63.9993 17.809 64.2149 16.5789 65.0562 15.7377C66.1872 14.6066 68.0209 14.6065 69.1518 15.7375ZM4.94384 15.7377C5.73817 16.532 5.97468 17.673 5.65333 18.6737L5.63833 18.719L12.0328 24.7377C12.8376 23.9477 14.7335 22.1467 17.7208 19.3347L17.8117 19.2492L18.2505 19.688C16.6759 21.4292 15.0657 23.1348 13.4199 24.8048C14.3227 25.7117 15.116 26.5215 15.5757 26.9818C14.9319 27.877 14.4109 28.4903 14.0127 28.8215C13.3763 29.351 12.5768 29.7011 11.6142 29.872C11.5836 29.8414 11.5519 29.8097 11.5191 29.7769L11.452 29.71L11.4348 29.6928L11.3093 29.5674L11.2907 29.5487L11.1947 29.4529C11.1816 29.4398 11.1684 29.4266 11.1551 29.4132L10.9462 29.2044C10.9316 29.1899 10.917 29.1753 10.9022 29.1605L10.7192 28.9776C10.7035 28.9619 10.6877 28.946 10.6717 28.9301L10.5247 28.7832C10.5081 28.7665 10.4912 28.7497 10.4743 28.7328L10.2654 28.524C10.2177 28.4763 10.1692 28.4278 10.1198 28.3784L9.98814 28.2468L9.98319 28.2417C8.78505 29.4155 7.11044 30.9972 4.95936 32.9865L4.86687 33.072L4.42804 32.6332C6.08092 30.7967 7.777 29.0034 9.51627 27.2532L9.84287 26.9256L9.98847 26.7799L4.03159 20.4507C2.97645 20.8998 1.70897 20.694 0.848332 19.8333C-0.282701 18.7023 -0.282794 16.8685 0.848155 15.7375C1.9791 14.6065 3.8128 14.6066 4.94384 15.7377ZM35.9141 0L35.9141 11.9988L47.8083 11.9989V13.9642L35.9141 13.9641L35.9141 24.2046C35.295 23.7464 34.953 23.5173 34.888 23.5173C34.823 23.5173 34.51 23.7464 33.949 24.2046L33.949 13.9641L22.0548 13.9642V11.9989L33.949 11.9988L33.949 0H35.9141Z" fill="white"/>
<path d="M97.268 44.432C95.276 44.432 93.344 44.168 91.472 43.64C89.624 43.088 88.136 42.38 87.008 41.516L88.988 37.124C90.068 37.916 91.352 38.552 92.84 39.032C94.328 39.512 95.816 39.752 97.304 39.752C98.96 39.752 100.184 39.512 100.976 39.032C101.768 38.528 102.164 37.868 102.164 37.052C102.164 36.452 101.924 35.96 101.444 35.576C100.988 35.168 100.388 34.844 99.644 34.604C98.924 34.364 97.94 34.1 96.692 33.812C94.772 33.356 93.2 32.9 91.976 32.444C90.752 31.988 89.696 31.256 88.808 30.248C87.944 29.24 87.512 27.896 87.512 26.216C87.512 24.752 87.908 23.432 88.7 22.256C89.492 21.056 90.68 20.108 92.264 19.412C93.872 18.716 95.828 18.368 98.132 18.368C99.74 18.368 101.312 18.56 102.848 18.944C104.384 19.328 105.728 19.88 106.88 20.6L105.08 25.028C102.752 23.708 100.424 23.048 98.096 23.048C96.464 23.048 95.252 23.312 94.46 23.84C93.692 24.368 93.308 25.064 93.308 25.928C93.308 26.792 93.752 27.44 94.64 27.872C95.552 28.28 96.932 28.688 98.78 29.096C100.7 29.552 102.272 30.008 103.496 30.464C104.72 30.92 105.764 31.64 106.628 32.624C107.516 33.608 107.96 34.94 107.96 36.62C107.96 38.06 107.552 39.38 106.736 40.58C105.944 41.756 104.744 42.692 103.136 43.388C101.528 44.084 99.572 44.432 97.268 44.432ZM128.541 38.6H116.841L114.609 44H108.633L119.865 18.8H125.625L136.893 44H130.773L128.541 38.6ZM126.705 34.172L122.709 24.524L118.713 34.172H126.705ZM145.34 23.48V30.14H157.004V34.82H145.34V44H139.508V18.8H158.552V23.48H145.34ZM167.896 23.552H159.832V18.8H181.792V23.552H173.728V44H167.896V23.552ZM105.584 70.6H93.884L91.652 76H85.676L96.908 50.8H102.668L113.936 76H107.816L105.584 70.6ZM103.748 66.172L99.752 56.524L95.756 66.172H103.748ZM127.459 50.8C129.691 50.8 131.623 51.172 133.255 51.916C134.911 52.66 136.183 53.716 137.071 55.084C137.959 56.452 138.403 58.072 138.403 59.944C138.403 61.792 137.959 63.412 137.071 64.804C136.183 66.172 134.911 67.228 133.255 67.972C131.623 68.692 129.691 69.052 127.459 69.052H122.383V76H116.551V50.8H127.459ZM127.135 64.3C128.887 64.3 130.219 63.928 131.131 63.184C132.043 62.416 132.499 61.336 132.499 59.944C132.499 58.528 132.043 57.448 131.131 56.704C130.219 55.936 128.887 55.552 127.135 55.552H122.383V64.3H127.135ZM155.122 76.432C152.506 76.432 150.142 75.868 148.03 74.74C145.942 73.612 144.298 72.064 143.098 70.096C141.922 68.104 141.334 65.872 141.334 63.4C141.334 60.928 141.922 58.708 143.098 56.74C144.298 54.748 145.942 53.188 148.03 52.06C150.142 50.932 152.506 50.368 155.122 50.368C157.738 50.368 160.09 50.932 162.178 52.06C164.266 53.188 165.91 54.748 167.11 56.74C168.31 58.708 168.91 60.928 168.91 63.4C168.91 65.872 168.31 68.104 167.11 70.096C165.91 72.064 164.266 73.612 162.178 74.74C160.09 75.868 157.738 76.432 155.122 76.432ZM155.122 71.464C156.61 71.464 157.954 71.128 159.154 70.456C160.354 69.76 161.29 68.8 161.962 67.576C162.658 66.352 163.006 64.96 163.006 63.4C163.006 61.84 162.658 60.448 161.962 59.224C161.29 58 160.354 57.052 159.154 56.38C157.954 55.684 156.61 55.336 155.122 55.336C153.634 55.336 152.29 55.684 151.09 56.38C149.89 57.052 148.942 58 148.246 59.224C147.574 60.448 147.238 61.84 147.238 63.4C147.238 64.96 147.574 66.352 148.246 67.576C148.942 68.8 149.89 69.76 151.09 70.456C152.29 71.128 153.634 71.464 155.122 71.464ZM173.293 50.8H179.125V71.248H191.761V76H173.293V50.8ZM206.801 76.432C204.185 76.432 201.821 75.868 199.709 74.74C197.621 73.612 195.977 72.064 194.777 70.096C193.601 68.104 193.013 65.872 193.013 63.4C193.013 60.928 193.601 58.708 194.777 56.74C195.977 54.748 197.621 53.188 199.709 52.06C201.821 50.932 204.185 50.368 206.801 50.368C209.417 50.368 211.769 50.932 213.857 52.06C215.945 53.188 217.589 54.748 218.789 56.74C219.989 58.708 220.589 60.928 220.589 63.4C220.589 65.872 219.989 68.104 218.789 70.096C217.589 72.064 215.945 73.612 213.857 74.74C211.769 75.868 209.417 76.432 206.801 76.432ZM206.801 71.464C208.289 71.464 209.633 71.128 210.833 70.456C212.033 69.76 212.969 68.8 213.641 67.576C214.337 66.352 214.685 64.96 214.685 63.4C214.685 61.84 214.337 60.448 213.641 59.224C212.969 58 212.033 57.052 210.833 56.38C209.633 55.684 208.289 55.336 206.801 55.336C205.313 55.336 203.969 55.684 202.769 56.38C201.569 57.052 200.621 58 199.925 59.224C199.253 60.448 198.917 61.84 198.917 63.4C198.917 64.96 199.253 66.352 199.925 67.576C200.621 68.8 201.569 69.76 202.769 70.456C203.969 71.128 205.313 71.464 206.801 71.464ZM242 63.004H247.328V73.228C245.96 74.26 244.376 75.052 242.576 75.604C240.776 76.156 238.964 76.432 237.14 76.432C234.524 76.432 232.172 75.88 230.084 74.776C227.996 73.648 226.352 72.1 225.152 70.132C223.976 68.14 223.388 65.896 223.388 63.4C223.388 60.904 223.976 58.672 225.152 56.704C226.352 54.712 228.008 53.164 230.12 52.06C232.232 50.932 234.608 50.368 237.248 50.368C239.456 50.368 241.46 50.74 243.26 51.484C245.06 52.228 246.572 53.308 247.796 54.724L244.052 58.18C242.252 56.284 240.08 55.336 237.536 55.336C235.928 55.336 234.5 55.672 233.252 56.344C232.004 57.016 231.032 57.964 230.336 59.188C229.64 60.412 229.292 61.816 229.292 63.4C229.292 64.96 229.64 66.352 230.336 67.576C231.032 68.8 231.992 69.76 233.216 70.456C234.464 71.128 235.88 71.464 237.464 71.464C239.144 71.464 240.656 71.104 242 70.384V63.004ZM272.258 71.32V76H252.746V50.8H271.79V55.48H258.542V60.952H270.242V65.488H258.542V71.32H272.258ZM282.118 55.552H274.054V50.8H296.014V55.552H287.95V76H282.118V55.552ZM299.152 50.8H304.984V76H299.152V50.8ZM323.025 76.432C320.457 76.432 318.129 75.88 316.041 74.776C313.977 73.648 312.345 72.1 311.145 70.132C309.969 68.14 309.381 65.896 309.381 63.4C309.381 60.904 309.969 58.672 311.145 56.704C312.345 54.712 313.977 53.164 316.041 52.06C318.129 50.932 320.469 50.368 323.061 50.368C325.245 50.368 327.213 50.752 328.965 51.52C330.741 52.288 332.229 53.392 333.429 54.832L329.685 58.288C327.981 56.32 325.869 55.336 323.349 55.336C321.789 55.336 320.397 55.684 319.173 56.38C317.949 57.052 316.989 58 316.293 59.224C315.621 60.448 315.285 61.84 315.285 63.4C315.285 64.96 315.621 66.352 316.293 67.576C316.989 68.8 317.949 69.76 319.173 70.456C320.397 71.128 321.789 71.464 323.349 71.464C325.869 71.464 327.981 70.468 329.685 68.476L333.429 71.932C332.229 73.396 330.741 74.512 328.965 75.28C327.189 76.048 325.209 76.432 323.025 76.432ZM345.436 76.432C343.444 76.432 341.512 76.168 339.64 75.64C337.792 75.088 336.304 74.38 335.176 73.516L337.156 69.124C338.236 69.916 339.52 70.552 341.008 71.032C342.496 71.512 343.984 71.752 345.472 71.752C347.128 71.752 348.352 71.512 349.144 71.032C349.936 70.528 350.332 69.868 350.332 69.052C350.332 68.452 350.092 67.96 349.612 67.576C349.156 67.168 348.556 66.844 347.812 66.604C347.092 66.364 346.108 66.1 344.86 65.812C342.94 65.356 341.368 64.9 340.144 64.444C338.92 63.988 337.864 63.256 336.976 62.248C336.112 61.24 335.68 59.896 335.68 58.216C335.68 56.752 336.076 55.432 336.868 54.256C337.66 53.056 338.848 52.108 340.432 51.412C342.04 50.716 343.996 50.368 346.3 50.368C347.908 50.368 349.48 50.56 351.016 50.944C352.552 51.328 353.896 51.88 355.048 52.6L353.248 57.028C350.92 55.708 348.592 55.048 346.264 55.048C344.632 55.048 343.42 55.312 342.628 55.84C341.86 56.368 341.476 57.064 341.476 57.928C341.476 58.792 341.92 59.44 342.808 59.872C343.72 60.28 345.1 60.688 346.948 61.096C348.868 61.552 350.44 62.008 351.664 62.464C352.888 62.92 353.932 63.64 354.796 64.624C355.684 65.608 356.128 66.94 356.128 68.62C356.128 70.06 355.72 71.38 354.904 72.58C354.112 73.756 352.912 74.692 351.304 75.388C349.696 76.084 347.74 76.432 345.436 76.432Z" fill="white"/>
</svg>
