<?xml version="1.0" encoding="UTF-8" ?>
<!DOCTYPE svg PUBLIC "-//W3C//DTD SVG 1.1//EN" "http://www.w3.org/Graphics/SVG/1.1/DTD/svg11.dtd">
<svg width="676pt" height="420pt" viewBox="0 0 676 420" version="1.1" xmlns="http://www.w3.org/2000/svg">
<g id="#fcfaffff">
<path fill="#fcfaff" opacity="1.00" d=" M 60.33 1.31 C 71.42 2.61 82.00 6.60 92.96 8.65 C 156.90 24.13 222.12 35.37 287.82 38.79 C 295.17 40.08 302.65 38.94 310.05 39.57 C 318.63 41.00 327.37 40.17 336.03 40.40 C 341.75 40.15 347.60 41.07 353.22 39.64 C 354.05 37.97 354.87 36.28 355.89 34.71 C 360.72 34.55 360.14 40.09 361.77 43.15 C 365.99 45.82 371.28 47.68 376.23 45.92 C 382.23 47.54 388.44 49.09 393.69 52.52 C 397.31 54.76 401.15 50.60 404.95 51.87 C 409.03 52.84 413.25 53.29 417.19 54.79 C 415.87 58.01 412.94 59.78 409.73 60.66 C 403.36 62.64 398.93 68.09 395.90 73.77 C 399.02 73.49 402.12 72.87 405.27 72.74 L 404.15 73.90 C 405.29 75.19 406.46 76.47 407.71 77.66 C 412.33 75.72 416.81 73.44 421.26 71.12 C 425.34 69.17 427.21 64.52 431.25 62.52 C 432.91 61.60 434.84 61.55 436.68 61.27 C 436.68 62.20 436.69 63.12 436.71 64.05 C 435.51 65.73 434.36 67.45 433.23 69.18 C 435.92 70.25 439.01 70.73 441.11 72.90 C 442.58 74.07 443.83 76.03 445.97 75.87 C 453.51 75.83 459.64 70.34 467.03 69.60 C 469.57 69.27 470.49 72.08 471.94 73.60 C 474.62 73.22 477.34 72.54 480.01 73.35 C 480.63 75.75 481.35 78.13 481.92 80.54 C 482.48 80.69 483.04 80.84 483.60 80.99 C 481.46 81.98 479.38 83.10 477.27 84.14 C 481.04 89.20 489.91 87.33 492.21 93.79 C 493.66 100.61 495.29 108.74 490.33 114.54 C 489.92 114.67 489.11 114.92 488.70 115.04 C 489.64 115.29 490.59 115.55 491.54 115.80 L 491.30 114.34 L 492.74 114.46 C 492.61 113.92 492.35 112.84 492.22 112.30 L 493.71 112.91 L 493.32 111.55 C 495.58 110.88 498.52 109.12 500.50 111.32 C 505.99 115.87 506.45 123.54 507.46 130.07 C 508.21 133.29 505.35 135.30 503.68 137.58 C 501.75 140.49 500.92 143.95 499.64 147.17 C 500.02 147.88 500.40 148.60 500.79 149.31 C 503.85 150.10 506.89 151.23 510.08 151.34 C 516.04 149.35 521.29 145.76 526.60 142.49 C 533.35 138.26 539.22 132.82 544.59 126.97 C 545.34 125.78 547.07 124.68 546.51 123.07 C 545.95 120.27 542.96 116.38 546.49 114.40 C 554.38 110.78 563.94 113.02 571.68 108.74 C 573.39 107.62 575.52 106.30 575.76 104.06 C 576.46 100.78 573.27 98.15 573.70 94.96 C 575.90 91.17 579.52 88.34 581.19 84.19 C 582.80 80.00 586.72 77.16 591.15 76.67 C 601.14 76.04 610.39 71.87 620.03 69.53 C 622.32 69.21 623.61 67.26 624.83 65.51 C 626.10 63.34 629.53 63.40 630.28 60.82 C 631.29 57.91 632.44 55.04 633.30 52.07 C 633.72 46.72 632.70 41.20 634.31 35.97 C 635.45 31.99 636.68 27.90 639.12 24.50 C 641.08 24.24 643.05 24.75 645.03 24.60 C 646.68 23.93 648.17 22.91 649.88 22.33 C 653.06 22.45 656.66 24.04 657.81 27.24 C 660.40 33.25 661.55 39.75 663.77 45.89 C 665.91 47.08 667.90 48.52 669.50 50.40 C 671.37 52.72 675.23 52.96 676.00 56.18 L 676.00 59.76 C 674.94 64.29 671.13 67.33 667.09 69.16 C 662.70 74.73 657.01 79.16 651.44 83.52 C 649.55 85.08 646.71 85.77 645.72 88.21 C 644.40 92.33 644.50 96.72 643.75 100.95 C 643.64 103.84 642.86 107.36 645.23 109.59 C 647.57 111.85 649.77 114.99 653.40 114.90 C 653.41 113.94 653.43 112.02 653.44 111.06 C 654.19 111.51 655.69 112.41 656.44 112.86 C 656.89 114.47 657.32 116.08 657.71 117.72 C 653.81 120.61 649.36 122.63 645.37 125.37 C 638.34 130.87 628.76 131.42 621.70 136.88 C 618.37 139.44 615.85 142.95 614.55 146.94 C 616.16 149.69 616.90 152.79 616.66 155.97 C 617.11 163.52 614.15 171.39 608.05 176.06 C 609.37 180.97 610.36 186.18 609.05 191.21 C 607.68 195.95 605.94 200.56 604.27 205.19 C 603.99 205.71 603.44 206.75 603.16 207.27 C 602.77 207.40 602.01 207.65 601.62 207.77 L 601.65 206.38 L 600.48 206.69 C 600.60 203.25 600.28 199.82 600.30 196.39 L 599.40 196.46 C 599.41 196.18 599.44 195.62 599.46 195.34 C 597.87 194.58 596.40 193.62 595.05 192.50 C 595.73 193.66 596.37 194.83 596.99 196.03 C 597.21 197.21 597.44 198.38 597.67 199.57 L 598.40 199.50 C 598.35 201.85 598.42 204.20 598.57 206.55 C 598.90 206.53 599.57 206.50 599.90 206.48 C 599.72 206.95 599.36 207.88 599.18 208.35 L 600.05 208.51 C 602.24 210.45 604.60 212.35 605.78 215.12 C 608.28 220.59 612.52 225.70 611.78 232.10 C 611.88 236.76 606.54 237.92 603.33 239.79 C 602.68 241.96 604.42 242.99 605.98 243.98 C 605.15 250.00 598.20 250.92 594.05 253.91 C 590.01 256.20 588.66 260.79 586.63 264.61 C 583.65 266.73 579.64 267.30 577.25 270.27 C 573.83 273.64 575.09 279.32 571.58 282.63 C 568.33 286.05 565.63 290.03 561.84 292.92 C 558.62 295.25 557.10 299.07 554.63 302.06 C 551.06 306.57 550.43 312.48 549.75 317.99 C 550.52 331.45 556.41 344.57 566.17 353.92 C 569.08 356.33 567.50 360.55 569.46 363.44 C 573.14 369.71 577.27 375.85 579.21 382.95 C 581.77 389.34 579.86 396.33 581.13 402.94 C 582.27 408.40 577.63 412.67 574.02 416.04 C 573.33 416.72 572.63 417.40 571.92 418.05 C 571.40 418.30 570.38 418.79 569.86 419.03 C 571.35 416.90 572.89 414.80 573.93 412.39 C 571.85 412.85 569.29 414.15 567.41 412.46 C 565.36 410.07 564.60 406.81 562.49 404.46 C 560.59 402.83 557.80 402.77 555.87 401.19 C 554.00 398.92 553.26 395.55 550.17 394.55 C 546.43 392.99 545.34 388.72 543.03 385.75 C 539.83 381.51 537.45 376.72 535.73 371.72 C 534.78 366.50 536.12 361.07 534.89 355.90 C 534.39 353.24 531.46 352.54 529.44 351.35 C 524.88 349.30 522.21 344.79 518.14 342.06 C 516.19 340.76 513.45 340.00 511.53 341.76 C 508.21 344.51 504.49 347.38 499.99 347.56 C 495.15 348.25 493.11 342.57 488.80 341.48 C 479.78 337.29 470.12 341.36 460.92 342.45 C 460.37 341.40 459.84 340.34 459.31 339.30 C 458.92 339.38 458.14 339.55 457.75 339.63 C 454.35 342.06 450.06 342.53 446.00 342.60 C 443.70 342.61 441.23 342.93 439.42 344.47 C 439.55 346.34 440.25 348.12 440.39 349.99 C 439.99 351.81 439.35 353.56 438.79 355.34 C 441.58 357.24 446.50 357.94 445.83 362.33 C 441.33 365.02 437.05 361.45 433.03 359.63 C 432.10 360.85 431.18 362.09 430.30 363.35 C 429.55 363.76 428.81 364.18 428.09 364.61 C 424.79 361.18 420.81 367.31 417.14 364.70 C 413.42 363.74 412.31 359.60 409.30 357.71 C 406.22 356.92 403.13 358.85 399.99 358.27 C 394.01 357.53 388.08 356.23 382.02 356.57 C 376.42 356.21 370.51 357.48 366.24 361.30 C 356.96 369.89 345.84 376.08 334.83 382.13 C 332.27 383.83 328.85 385.03 327.72 388.16 C 325.95 393.25 326.78 398.72 326.58 404.00 C 326.24 408.40 328.31 412.78 326.85 417.12 L 327.18 417.44 C 318.26 417.31 309.29 414.13 302.00 409.03 C 296.34 405.14 294.53 398.09 294.31 391.60 C 291.29 386.80 287.51 382.49 283.66 378.35 C 281.92 375.60 281.78 372.18 280.55 369.21 C 277.29 359.28 267.44 351.66 256.92 351.67 C 251.19 352.50 250.08 359.08 246.55 362.62 C 244.43 365.00 241.10 363.28 238.79 362.16 C 233.36 359.27 226.73 356.93 224.05 350.89 C 221.27 345.21 223.86 337.12 217.91 333.12 C 212.29 329.47 207.91 324.33 204.25 318.78 C 202.32 315.56 198.48 314.51 194.94 314.57 C 189.87 314.55 184.90 312.15 179.85 313.44 C 178.93 315.35 178.52 317.64 176.96 319.15 C 173.63 320.07 170.24 318.94 166.93 318.58 C 154.43 316.85 141.64 315.26 130.12 309.78 C 124.32 306.94 118.90 303.39 113.52 299.84 L 113.43 300.04 C 106.86 295.59 99.99 291.60 93.10 287.69 C 90.40 286.36 89.30 282.70 86.09 282.38 C 77.83 280.98 69.23 281.01 61.20 278.43 C 57.40 276.92 58.87 272.06 57.99 268.95 C 57.55 264.05 54.40 259.86 50.20 257.48 C 47.07 255.99 46.09 252.39 43.41 250.37 C 39.24 247.10 36.08 242.58 31.41 239.97 C 28.26 238.25 23.10 239.19 21.74 235.06 C 21.23 231.34 24.23 227.71 22.66 224.04 C 20.25 215.90 13.28 209.63 12.60 200.89 C 13.03 198.81 14.24 197.00 14.76 194.96 C 13.84 192.14 11.51 190.00 10.68 187.12 C 10.01 183.74 10.88 180.31 10.54 176.92 C 9.68 174.27 8.49 171.70 8.13 168.91 C 7.56 164.54 4.75 161.06 2.90 157.21 C -0.30 150.95 5.04 144.38 4.22 137.89 C 3.62 134.82 0.02 132.14 1.79 128.88 C 5.64 121.39 11.84 113.92 10.16 104.91 C 9.19 100.56 10.66 96.25 11.34 91.98 C 11.64 89.27 13.41 87.10 14.78 84.86 C 23.09 71.76 28.22 57.02 33.14 42.41 C 33.75 36.89 35.29 31.53 36.18 26.06 C 35.02 19.16 35.07 12.05 35.89 5.11 C 41.67 4.43 45.32 9.86 50.51 11.30 C 53.57 12.59 56.68 11.08 59.54 10.02 C 59.84 7.12 59.91 4.20 60.33 1.31 M 460.14 85.65 C 456.59 87.67 452.54 88.27 448.73 89.59 C 448.16 90.76 447.61 91.94 447.07 93.13 C 446.78 94.17 446.50 95.22 446.24 96.28 C 445.88 97.51 445.87 98.80 445.84 100.08 C 446.13 99.16 446.70 97.30 446.99 96.38 C 447.95 98.83 447.84 101.52 447.49 104.09 C 445.96 113.36 443.13 122.54 443.58 132.02 C 443.64 140.15 445.45 149.12 451.88 154.69 C 457.14 153.36 459.88 147.91 460.82 142.98 C 462.34 137.28 460.64 131.22 457.75 126.25 C 455.39 122.53 456.74 118.00 457.27 113.97 C 457.64 108.19 459.02 102.20 462.63 97.53 C 464.08 95.58 466.57 94.94 468.34 93.34 C 469.49 91.66 469.92 89.62 470.60 87.72 C 471.93 85.38 474.07 84.43 477.02 84.88 C 475.49 84.60 472.44 84.04 470.91 83.76 C 467.20 83.26 463.40 83.73 460.14 85.65 Z" />
</g>
</svg>
