<?xml version="1.0" standalone="no"?>
<!DOCTYPE svg PUBLIC "-//W3C//DTD SVG 20010904//EN"
 "http://www.w3.org/TR/2001/REC-SVG-20010904/DTD/svg10.dtd">
<svg version="1.0" xmlns="http://www.w3.org/2000/svg"
 width="700.000000pt" height="700.000000pt" viewBox="0 0 700.000000 700.000000"
 preserveAspectRatio="xMidYMid meet">
<metadata>
Created by potrace 1.11, written by Peter Selinger 2001-2013
</metadata>
<g transform="translate(0.000000,700.000000) scale(0.100000,-0.100000)"
fill="#000000" stroke="none">
<path d="M3410 6480 l0 -520 -27 -1 c-16 0 -247 0 -515 0 -269 0 -488 -3 -489
-7 0 -4 -1 -42 -3 -84 -2 -77 -2 -78 24 -78 14 0 247 0 518 0 l492 1 0 -447 0
-446 40 32 40 31 45 -31 45 -31 0 445 0 446 503 -1 c276 0 508 0 515 0 8 1 12
25 12 85 l0 85 -467 0 c-258 0 -489 0 -515 0 l-48 1 0 520 0 520 -85 0 -85 0
0 -520z"/>
<path d="M650 5700 c-106 -30 -178 -118 -184 -227 -12 -173 144 -299 320 -259
27 6 35 1 90 -57 32 -34 120 -128 195 -207 183 -194 247 -264 251 -272 2 -3
-55 -67 -127 -140 -126 -130 -199 -207 -300 -316 -48 -52 -48 -53 -29 -72 19
-19 20 -19 69 27 46 42 352 332 380 360 10 9 28 -4 81 -58 64 -65 72 -70 103
-65 95 15 220 105 289 209 l25 38 -93 94 -93 93 115 119 c63 65 146 152 184
193 133 144 123 128 97 153 -19 17 -9 26 -416 -364 l-101 -96 -21 21 c-12 12
-55 53 -96 91 -178 167 -338 316 -384 359 -45 42 -49 50 -46 84 6 61 6 66 -3
106 -15 74 -78 148 -151 176 -37 14 -121 20 -155 10z"/>
<path d="M6210 5695 c-122 -38 -197 -174 -167 -301 8 -32 -8 -49 -298 -319
-22 -21 -76 -71 -120 -113 -44 -41 -94 -88 -111 -104 l-30 -28 -65 62 c-87 83
-369 350 -383 363 -54 47 -55 48 -71 35 -8 -7 -15 -16 -15 -21 0 -10 65 -82
305 -334 28 -29 63 -66 79 -83 l28 -31 -52 -53 c-29 -29 -71 -72 -93 -95 l-39
-42 33 -43 c83 -109 153 -161 256 -191 l51 -15 71 71 71 71 32 -30 c18 -16 75
-70 128 -120 206 -197 280 -264 291 -264 4 0 12 7 19 15 9 11 9 18 -2 34 -17
24 -184 203 -349 374 l-116 121 61 64 c34 35 77 81 96 101 19 20 96 102 170
181 216 231 207 222 232 214 13 -4 47 -7 75 -6 137 1 247 123 238 265 -10 161
-171 271 -325 222z"/>
<path d="M1910 4848 c-1 -261 -134 -433 -405 -523 -44 -15 -81 -28 -83 -29 -1
-2 20 -50 47 -107 82 -174 137 -327 166 -465 16 -70 19 -90 34 -204 11 -81 6
-361 -8 -457 -13 -90 -39 -250 -46 -283 -3 -14 -8 -38 -10 -55 -3 -16 -14 -70
-25 -120 -10 -49 -21 -101 -23 -115 -3 -14 -12 -63 -21 -110 -8 -47 -18 -103
-21 -125 -3 -22 -8 -49 -10 -60 -4 -19 -10 -69 -20 -175 -6 -65 -6 -289 1
-330 16 -104 27 -161 41 -210 86 -306 407 -747 642 -880 14 -8 28 -17 31 -20
19 -21 208 -99 384 -160 358 -122 553 -209 781 -346 60 -36 112 -66 115 -67 3
-1 30 14 60 33 239 152 408 229 755 345 242 81 306 105 410 157 153 77 301
196 401 323 21 28 41 52 44 55 17 17 65 88 117 175 226 375 282 690 204 1155
-18 104 -21 120 -42 220 -11 52 -23 106 -25 120 -3 14 -14 66 -24 115 -16 77
-29 144 -45 240 -18 105 -27 204 -30 335 -6 320 53 585 201 899 55 116 56 130
14 131 -24 0 -146 47 -203 77 -106 57 -211 192 -231 294 -2 13 -7 35 -10 49
-4 14 -8 58 -10 98 -2 40 -6 75 -9 78 -3 3 -34 -11 -69 -31 -35 -21 -135 -72
-223 -115 -451 -218 -650 -241 -930 -105 -111 53 -186 100 -296 187 l-48 37
-63 -46 c-85 -63 -223 -146 -301 -182 -293 -134 -488 -107 -977 139 -63 31
-139 72 -168 89 -29 17 -57 31 -62 31 -6 0 -10 -28 -10 -62z m1639 -381 c32
-42 51 -88 55 -140 l3 -32 57 3 c47 3 68 -2 114 -24 l57 -28 -47 -7 c-27 -4
-63 -17 -82 -28 -38 -24 -81 -83 -92 -126 -4 -16 -8 -370 -8 -787 l-1 -759
595 3 595 3 37 23 c20 13 48 38 61 56 25 33 50 103 41 117 -2 4 0 10 4 13 5 3
19 -14 31 -37 22 -42 30 -114 17 -155 -6 -17 -3 -22 11 -23 54 -3 74 -8 115
-27 24 -12 57 -35 72 -51 28 -29 28 -30 10 -55 -26 -35 -106 -76 -162 -85
l-47 -6 3 -62 c4 -64 -24 -153 -48 -153 -6 0 -9 4 -6 8 11 18 -18 93 -50 130
-66 77 -47 75 -696 76 l-576 1 -4 -35 c-2 -19 -2 -363 -2 -765 2 -812 -1 -771
70 -840 33 -32 72 -49 134 -57 22 -3 18 -7 -30 -30 -47 -23 -64 -27 -118 -23
-34 2 -61 1 -58 -3 2 -4 0 -30 -5 -57 -10 -52 -58 -133 -92 -154 -16 -11 -23
-8 -49 21 -42 46 -64 95 -73 155 -6 48 -8 51 -28 44 -37 -14 -111 -4 -158 20
l-44 23 42 7 c95 17 158 76 177 165 5 23 11 1358 7 1511 l-1 22 -587 -2 c-581
-2 -588 -2 -628 -24 -68 -36 -115 -103 -115 -163 0 -69 -50 17 -55 93 -2 28 1
61 6 74 8 20 5 23 -19 24 -68 2 -131 29 -181 80 l-32 32 23 24 c46 50 139 89
200 85 14 0 15 4 8 24 -15 39 -11 95 9 140 25 55 41 64 41 24 0 -60 47 -127
115 -163 40 -22 47 -22 623 -23 357 -1 585 3 589 9 8 13 6 1481 -3 1520 -19
90 -83 149 -176 165 l-40 7 39 22 c47 27 108 36 152 23 22 -6 31 -5 32 3 4 80
33 152 79 197 36 35 44 33 89 -23z m817 -654 c20 -43 47 -103 61 -133 14 -30
57 -125 95 -210 39 -85 88 -193 109 -238 22 -46 39 -86 39 -87 0 -2 20 -46 44
-97 24 -51 53 -113 64 -138 30 -65 66 -99 112 -106 90 -14 27 -21 -205 -21
-135 0 -245 4 -245 9 0 4 10 8 22 8 29 0 58 28 58 57 0 25 -65 201 -80 217
-13 13 -340 14 -355 1 -12 -10 -82 -177 -87 -205 -5 -32 14 -61 43 -67 64 -13
21 -19 -131 -20 -94 -1 -160 3 -160 8 0 6 6 9 13 8 29 -5 70 16 102 54 19 22
35 44 35 49 0 4 11 31 24 60 13 29 80 181 149 338 69 157 148 336 176 398 28
62 55 131 61 153 6 21 13 39 16 39 3 0 21 -35 40 -77z m-1418 54 l73 -2 -6
-105 c-7 -112 -18 -145 -29 -86 -14 76 -96 134 -193 137 -104 4 -170 -28 -203
-97 -21 -43 -22 -47 -6 -88 19 -49 46 -71 269 -214 213 -138 250 -183 253
-312 6 -235 -199 -368 -505 -327 -76 10 -163 41 -197 70 -20 18 -26 33 -28 77
-3 62 8 119 31 167 19 41 24 37 29 -22 4 -56 48 -139 91 -173 54 -44 113 -61
200 -59 61 2 87 8 119 26 73 41 104 133 69 201 -19 38 -69 77 -250 196 -201
132 -238 170 -260 267 -19 85 7 192 62 253 69 76 154 103 308 97 55 -3 133 -6
173 -6z m170 -1967 c0 -71 -3 -130 -7 -130 -4 0 -8 14 -9 31 -3 43 -26 84 -62
109 -28 20 -45 22 -181 24 -97 1 -153 -2 -157 -8 -4 -6 -7 -107 -7 -223 l0
-213 40 -1 c225 -5 272 12 291 109 13 65 19 20 18 -135 -2 -197 -2 -198 -20
-141 -16 53 -62 98 -102 99 -146 5 -222 3 -225 -6 -2 -5 -3 -102 -2 -214 l1
-203 32 -29 c18 -16 43 -29 57 -29 14 0 25 -3 25 -8 0 -4 -103 -7 -230 -7
-126 0 -230 3 -230 7 0 5 12 8 26 8 26 0 83 47 85 72 1 7 2 213 3 457 1 508 4
488 -81 514 -45 14 -26 15 272 17 176 1 338 4 360 6 32 4 95 18 101 23 1 1 1
-57 2 -129z m1177 101 c320 -1 399 3 500 22 12 2 15 -252 3 -259 -4 -3 -8 9
-8 26 0 47 -28 97 -68 122 -31 19 -50 22 -161 22 l-126 1 -2 -450 c-2 -281 1
-461 7 -480 11 -33 55 -65 90 -65 11 0 19 -4 16 -8 -5 -9 -452 -10 -461 -1 -3
4 12 9 34 13 29 4 46 14 62 37 22 31 22 33 21 473 0 242 -1 451 -1 463 -1 21
-4 21 -123 19 -68 -2 -135 -8 -150 -14 -37 -16 -78 -73 -83 -118 -2 -22 -5
-41 -6 -44 -6 -11 -14 149 -11 206 l4 61 46 -13 c33 -8 160 -12 417 -13z"/>
<path d="M3489 4224 c-1 -21 -3 -57 -5 -79 -10 -121 -13 -277 -13 -951 l-1
-742 -547 0 c-302 -1 -602 -4 -668 -8 -66 -4 -135 -7 -152 -8 -18 0 -33 -4
-33 -8 0 -4 8 -6 18 -6 9 0 62 -3 117 -7 55 -4 361 -8 680 -10 l580 -2 2 -34
c2 -19 4 -394 7 -834 4 -741 7 -900 21 -913 3 -3 5 19 6 49 0 30 3 74 5 99 2
25 6 399 8 833 1 433 6 790 9 793 3 4 286 8 629 9 564 3 764 8 777 21 2 2 -18
4 -45 5 -27 1 -62 3 -79 6 -16 2 -232 6 -480 9 -247 3 -531 6 -629 7 l-180 2
-1 760 c-2 679 -9 1032 -21 1044 -2 2 -5 -13 -5 -35z"/>
<path d="M4247 3488 c-37 -82 -138 -331 -134 -334 2 -3 70 -3 150 -2 l146 3
-71 180 c-38 99 -71 181 -73 183 -1 1 -9 -12 -18 -30z"/>
<path d="M5315 1008 c-21 -35 -67 -97 -102 -139 -35 -43 -63 -79 -63 -82 0 -6
159 -163 283 -280 121 -114 358 -285 567 -409 113 -67 150 -83 150 -65 0 10
-76 154 -113 212 -143 229 -275 401 -429 560 -74 77 -162 168 -195 203 l-59
63 -39 -63z"/>
<path d="M1452 853 c-196 -204 -247 -264 -338 -393 -130 -183 -274 -420 -274
-450 0 -17 57 8 161 70 111 67 352 228 385 258 10 9 40 33 66 53 60 46 388
360 388 372 0 5 -24 36 -54 69 -29 33 -73 94 -97 134 -24 40 -47 74 -50 74 -4
0 -88 -84 -187 -187z"/>
</g>
</svg>
